<?xml version="1.0" encoding="utf-8"?>
<svg version="1.1" id="Layer_1" xmlns="http://www.w3.org/2000/svg" xmlns:xlink="http://www.w3.org/1999/xlink" x="0px" y="0px"
	 viewBox="0 0 1737 1243" style="enable-background:new 0 0 1737 1243;" xml:space="preserve">
<style type="text/css">
	.st0{fill:#2E2E38;stroke:#000000;stroke-width:1.007;stroke-miterlimit:10;}
	.st1{fill:#CDECF7;stroke:#000000;stroke-width:21;stroke-linecap:round;stroke-linejoin:round;}
	.st2{fill:none;stroke:#000000;stroke-width:21;stroke-linecap:round;stroke-linejoin:round;}
	.st3{fill:#494949;stroke:#000000;stroke-width:21;stroke-linecap:round;stroke-linejoin:round;}
	.st4{fill:#1C27B7;stroke:#000000;stroke-width:21;stroke-linecap:round;stroke-linejoin:round;}
	.st5{fill:#00A393;stroke:#000000;stroke-width:21;stroke-linecap:round;stroke-linejoin:round;}
</style>
<path class="st0" d="M0,0.5h1737v1243H0V0.5z"/>
<rect x="564.1" y="305.9" class="st1" width="450.9" height="631.3"/>
<line class="st2" x1="721.9" y1="384.8" x2="857.2" y2="384.8"/>
<line class="st2" x1="620.5" y1="463.7" x2="958.7" y2="463.7"/>
<line class="st2" x1="620.5" y1="520" x2="958.7" y2="520"/>
<line class="st2" x1="620.5" y1="576.4" x2="958.7" y2="576.4"/>
<line class="st2" x1="620.5" y1="632.8" x2="958.7" y2="632.8"/>
<line class="st2" x1="620.5" y1="689.1" x2="958.7" y2="689.1"/>
<line class="st2" x1="620.5" y1="745.5" x2="958.7" y2="745.5"/>
<line class="st2" x1="620.5" y1="801.9" x2="958.7" y2="801.9"/>
<line class="st2" x1="620.5" y1="858.2" x2="958.7" y2="858.2"/>
<polygon class="st3" points="1172.9,835.7 1105.2,835.7 1139.1,937.1 "/>
<rect x="1105.2" y="486.2" class="st4" width="67.6" height="349.5"/>
<path class="st5" d="M1127.8,305.9h22.5c12.5,0,22.5,10.1,22.5,22.5v157.8l0,0h-67.6l0,0V328.4
	C1105.2,315.9,1115.3,305.9,1127.8,305.9z"/>
<path class="st2" d="M1105.2,350.9h-22.5c-12.5,0-22.5,10.1-22.5,22.5v112.7"/>
</svg>
